<?xml version="1.0" encoding="utf-8"?>
<!-- Generator: Adobe Illustrator 26.0.3, SVG Export Plug-In . SVG Version: 6.00 Build 0)  -->
<svg version="1.1" id="Layer_1" xmlns="http://www.w3.org/2000/svg" xmlns:xlink="http://www.w3.org/1999/xlink" x="0px" y="0px"
	 viewBox="0 0 500 200" style="enable-background:new 0 0 500 200;" xml:space="preserve">
<style type="text/css">
	.st0{fill:#FFFFFF;}
</style>
<g>
	<path class="st0" d="M428.3,84.94L398.2,6.62h-3.85l-38.79,97.86c-0.99,2.48-1.96,4.81-2.9,7c-16.25,3.23-33.04,5.09-50.21,5.47
		c-0.4-5.74-0.6-12.78-0.6-21.12v-4.17V13.62h9.42c14.01,0,24.04,2.35,30,7.09c6,4.71,10.19,13.19,12.54,25.42h2.55l-2.15-36.68
		H228.26l-2.25,36.68h2.65c2.28-12.23,6.44-20.71,12.37-25.42c5.97-4.74,15.99-7.09,30.07-7.09h9.42v78.04v4.17
		c0,8.17-0.19,15.09-0.58,20.76c-15.87-0.86-31.38-3-46.42-6.3L193.67,6.62h-3.86l-30.21,76.21c-5.5-2.98-10.89-6.13-16.15-9.46
		c-0.4-10.35-2.72-20.01-7-28.98c-4.69-9.91-11.23-17.76-19.55-23.59c-5.77-4.08-12.54-6.99-20.32-8.75
		c-7.78-1.76-18.5-2.62-32.12-2.62H7.13v2.82H8.7c7.07,0,11.83,2.35,14.28,7.03c2.45,4.7,3.69,17.4,3.69,38.11v4.17v34.4
		c0,20.65-1.24,33.34-3.69,38.04c-2.45,4.74-7.21,7.09-14.28,7.09H7.13v2.72h57.36c12.91,0,23.33-0.86,31.31-2.62
		c8.01-1.76,14.85-4.57,20.55-8.45c8.45-5.77,15.08-13.62,19.91-23.59c3.97-8.14,6.3-16.86,7.03-26.15
		c4.12,3.13,8.35,6.14,12.68,9.02l-4.94,12.46c-5.7,14.25-10.56,23.69-14.58,28.3c-4.02,4.64-8.95,7.42-14.78,8.32v2.72h45.49
		l-0.1-2.72c-5.9-0.26-10.06-1.42-12.44-3.54c-2.38-2.09-3.59-5.63-3.59-10.64c0-2.92,0.6-6.76,1.78-11.53
		c1.17-4.8,2.88-10.01,5.09-15.64l2.03-5.14c16.69,10.64,34.85,19.38,54.13,25.88c0.32,1.11,0.61,2.2,0.87,3.28
		c0.67,2.95,1.04,5,1.04,6.16c0,3.51-1.27,6.13-3.79,7.85c-2.51,1.76-6.6,2.85-12.24,3.31v2.72h59.34v-2.72
		c-5.36-0.26-9.62-1.86-12.71-4.8c-1.82-1.72-3.72-4.52-5.7-8.38c11.81,2.58,23.94,4.35,36.34,5.24c-0.12,0.29-0.25,0.57-0.38,0.82
		c-2.45,4.67-7.17,7.03-14.18,7.03h-1.68v2.82h60.41V141h-1.68c-7.01,0-11.73-2.35-14.18-7.03c-0.05-0.1-0.11-0.21-0.16-0.32
		c12.99-0.47,25.72-1.9,38.11-4.22c-0.87,1.31-1.71,2.43-2.51,3.35c-4.02,4.64-8.95,7.42-14.78,8.32v2.72h45.49l-0.1-2.72
		c-5.9-0.26-10.06-1.42-12.44-3.54c-2.38-2.09-3.59-5.63-3.59-10.64c0-0.01,0-0.03,0-0.04c20.4-4.85,39.77-12.14,57.76-21.52
		l3.32,9.23c1.21,3.18,2.11,6.23,2.82,9.18c0.67,2.95,1.04,5,1.04,6.16c0,3.51-1.27,6.13-3.79,7.85c-2.51,1.76-6.6,2.85-12.24,3.31
		v2.72h59.34v-2.72c-5.36-0.26-9.62-1.86-12.71-4.8c-3.12-2.95-6.47-9.05-10.09-18.29L432,94.56
		c24.53-15.65,45.89-35.41,62.96-58.24C475.58,55.57,453.11,72.01,428.3,84.94z M103.37,123.01c-10.02,11.1-23.94,16.64-41.74,16.64
		H47.99V47.02c0-14.51,1.34-23.69,4.02-27.57c2.68-3.88,7.88-5.83,15.62-5.83c14.98,0,27.19,5.8,36.61,17.43
		c5.1,6.29,8.81,13.63,11.15,22.01c-6.43-5.31-12.6-10.89-18.48-16.73c6.14,8.21,12.83,16.02,20.02,23.39
		c0.97,5.28,1.46,10.92,1.46,16.94C118.39,96.43,113.4,111.91,103.37,123.01z M183.45,34.89l24.66,68.58
		c-15.47-4.93-30.31-11.13-44.41-18.46L183.45,34.89z M358.76,110.2c1-3.31,2.23-6.79,3.67-10.46l25.54-64.85l21.25,59.09
		C393.17,100.86,376.29,106.32,358.76,110.2z"/>
	<path class="st0" d="M457.3,13.08l5.57,16.25h2.3l5.63-15.96v15.96h2.45V10.25h-3.42l-4.64,13.27c-0.47,1.35-0.81,2.37-1.03,3.06
		c-0.19-0.63-0.5-1.57-0.92-2.82l-4.56-13.5h-3.83v19.08h2.45V13.08z"/>
	<polygon class="st0" points="443.34,29.33 445.9,29.33 445.9,12.49 452.26,12.49 452.26,10.25 436.98,10.25 436.98,12.49 
		443.34,12.49 	"/>
	<path class="st0" d="M155.84,166.97c-1.69-1.91-3.71-2.86-6.03-2.86c-2.53,0-4.63,0.9-6.29,2.71c-1.66,1.81-2.49,4.46-2.49,7.94
		c0,3.41,0.86,6.06,2.56,7.96c1.71,1.91,3.75,2.85,6.15,2.85c1.17,0,2.34-0.3,3.49-0.88c1.15-0.59,2.16-1.47,3.01-2.64v3.01h5.08
		v-28.32h-5.48V166.97z M154.51,179.71c-0.88,1.07-1.95,1.6-3.21,1.6c-1.59,0-2.82-0.71-3.71-2.14c-0.61-0.98-0.91-2.57-0.91-4.77
		c0-2.05,0.44-3.58,1.31-4.61c0.88-1.03,1.97-1.54,3.27-1.54c1.34,0,2.43,0.52,3.29,1.56c0.86,1.04,1.29,2.74,1.29,5.11
		C155.84,177.05,155.4,178.64,154.51,179.71z"/>
	<path class="st0" d="M191.36,178.33l0.08-6.33c0-2.36-0.25-3.97-0.73-4.86c-0.49-0.88-1.33-1.61-2.53-2.18
		c-1.2-0.57-3.03-0.86-5.47-0.86c-2.69,0-4.73,0.48-6.09,1.44c-1.37,0.96-2.33,2.44-2.89,4.45l4.96,0.87
		c0.34-0.97,0.78-1.65,1.33-2.03c0.55-0.39,1.31-0.58,2.29-0.58c1.45,0,2.43,0.22,2.96,0.67c0.52,0.45,0.78,1.21,0.78,2.26v0.55
		c-0.99,0.41-2.77,0.86-5.33,1.33c-1.9,0.36-3.36,0.78-4.36,1.26c-1.01,0.48-1.79,1.18-2.35,2.08c-0.56,0.91-0.84,1.94-0.84,3.1
		c0,1.75,0.61,3.2,1.84,4.34c1.23,1.15,2.91,1.72,5.03,1.72c1.21,0,2.34-0.23,3.41-0.68c1.07-0.46,2.07-1.13,3-2.04
		c0.04,0.1,0.11,0.31,0.19,0.63c0.21,0.7,0.39,1.23,0.53,1.58h5.44c-0.48-0.98-0.81-1.89-0.98-2.75
		C191.45,181.46,191.36,180.13,191.36,178.33z M186.04,176.34c0,1.3-0.07,2.18-0.21,2.64c-0.21,0.71-0.65,1.3-1.31,1.8
		c-0.9,0.64-1.85,0.96-2.83,0.96c-0.89,0-1.61-0.28-2.19-0.83c-0.57-0.55-0.86-1.21-0.86-1.97c0-0.77,0.36-1.41,1.07-1.91
		c0.47-0.3,1.47-0.62,2.99-0.94c1.53-0.32,2.64-0.6,3.34-0.83V176.34z"/>
	<rect x="123.24" y="179.65" class="st0" width="5.48" height="5.42"/>
	<polygon class="st0" points="26.59,178 23.14,164.54 17.85,164.54 14.27,178 10.38,164.54 5.04,164.54 11.61,185.07 16.95,185.07 
		20.47,171.87 24.04,185.07 29.3,185.07 35.97,164.54 30.56,164.54 	"/>
	<polygon class="st0" points="104.59,178 101.14,164.54 95.85,164.54 92.27,178 88.38,164.54 83.05,164.54 89.61,185.07 
		94.95,185.07 98.47,171.87 102.04,185.07 107.31,185.07 113.98,164.54 108.56,164.54 	"/>
	<polygon class="st0" points="65.59,178 62.14,164.54 56.85,164.54 53.27,178 49.38,164.54 44.05,164.54 50.61,185.07 55.95,185.07 
		59.47,171.87 63.04,185.07 68.3,185.07 74.97,164.54 69.56,164.54 	"/>
	<path class="st0" d="M321.23,164.11c-2.03,0-3.87,0.45-5.51,1.34c-1.65,0.89-2.92,2.18-3.82,3.87c-0.9,1.69-1.35,3.43-1.35,5.24
		c0,2.36,0.45,4.36,1.35,6c0.9,1.65,2.21,2.89,3.93,3.75c1.73,0.85,3.54,1.28,5.44,1.28c3.07,0,5.62-1.02,7.65-3.06
		c2.02-2.04,3.03-4.62,3.03-7.73c0-3.09-1-5.63-3.01-7.65C326.94,165.12,324.38,164.11,321.23,164.11z M324.86,179.53
		c-0.97,1.09-2.17,1.63-3.59,1.63c-1.43,0-2.63-0.54-3.61-1.63c-0.97-1.08-1.46-2.64-1.46-4.68c0-2.04,0.49-3.6,1.46-4.68
		c0.98-1.09,2.18-1.63,3.61-1.63c1.43,0,2.63,0.54,3.59,1.63c0.97,1.08,1.45,2.63,1.45,4.64
		C326.32,176.87,325.83,178.44,324.86,179.53z"/>
	<path class="st0" d="M387.9,164.11c-1.38,0-2.64,0.32-3.77,0.95c-1.13,0.64-2.03,1.47-2.69,2.5v-3.01h-5.12v28.32h5.48v-10.27
		c1.03,1.1,2.01,1.87,2.94,2.32c0.93,0.45,1.97,0.68,3.12,0.68c2.41,0,4.47-0.95,6.16-2.85c1.69-1.9,2.54-4.57,2.54-8
		c0-3.34-0.84-5.95-2.52-7.81C392.35,165.04,390.31,164.11,387.9,164.11z M389.65,179.75c-0.85,1.01-1.91,1.52-3.18,1.52
		c-1.32,0-2.45-0.55-3.37-1.65c-0.93-1.11-1.39-2.82-1.39-5.13c0-2.02,0.44-3.54,1.33-4.57c0.88-1.03,1.99-1.54,3.33-1.54
		c1.29,0,2.37,0.52,3.23,1.57c0.87,1.05,1.31,2.65,1.31,4.81C390.91,177.07,390.49,178.73,389.65,179.75z"/>
	<path class="st0" d="M464.28,166.4c-0.51-0.67-1.27-1.21-2.29-1.65c-1.01-0.43-2.12-0.64-3.33-0.64c-2.77,0-5.06,1.15-6.88,3.45
		v-3.01h-5.08v20.53h5.48v-9.28c0-2.29,0.14-3.86,0.43-4.71c0.28-0.84,0.8-1.53,1.57-2.04c0.76-0.51,1.62-0.77,2.58-0.77
		c0.75,0,1.39,0.18,1.92,0.54c0.53,0.36,0.91,0.86,1.15,1.52c0.23,0.65,0.35,2.08,0.35,4.29v10.46h5.48v-12.74
		c0-1.58-0.1-2.8-0.31-3.64C465.16,167.83,464.8,167.07,464.28,166.4z"/>
	<rect x="408.75" y="179.65" class="st0" width="5.48" height="5.42"/>
	<path class="st0" d="M211.98,181.08c-0.37,0-0.67-0.09-0.93-0.27c-0.26-0.18-0.42-0.42-0.49-0.69c-0.07-0.28-0.11-1.26-0.11-2.95
		v-8.31h3.76v-4.31h-3.76v-7.28l-5.48,3.2v4.07h-2.52v4.31h2.52v8.98c0,1.93,0.06,3.21,0.17,3.84c0.15,0.9,0.4,1.6,0.77,2.13
		c0.37,0.52,0.95,0.95,1.74,1.28c0.79,0.33,1.68,0.49,2.67,0.49c1.61,0,3.05-0.27,4.33-0.81l-0.46-4.22
		C213.22,180.9,212.49,181.08,211.98,181.08z"/>
	<rect x="427.78" y="164.54" class="st0" width="5.48" height="20.53"/>
	<path class="st0" d="M357.47,173.22c0,2.95-0.14,4.79-0.41,5.55c-0.27,0.76-0.78,1.39-1.53,1.9c-0.75,0.51-1.59,0.76-2.53,0.76
		c-0.83,0-1.51-0.19-2.04-0.57c-0.54-0.38-0.91-0.9-1.11-1.55c-0.2-0.65-0.31-2.42-0.31-5.31v-9.45h-5.48v13.02
		c0,1.94,0.25,3.45,0.75,4.55c0.49,1.1,1.29,1.95,2.41,2.56c1.11,0.61,2.36,0.91,3.76,0.91c1.37,0,2.67-0.32,3.9-0.97
		c1.24-0.65,2.23-1.52,2.99-2.62v3.07h5.08v-20.53h-5.48V173.22z"/>
	<path class="st0" d="M242.69,178.33l0.08-6.33c0-2.36-0.25-3.97-0.73-4.86c-0.49-0.88-1.33-1.61-2.53-2.18
		c-1.2-0.57-3.03-0.86-5.48-0.86c-2.69,0-4.73,0.48-6.09,1.44c-1.37,0.96-2.34,2.44-2.89,4.45l4.96,0.87
		c0.34-0.97,0.78-1.65,1.33-2.03c0.55-0.39,1.31-0.58,2.29-0.58c1.45,0,2.43,0.22,2.96,0.67c0.52,0.45,0.78,1.21,0.78,2.26v0.55
		c-0.99,0.41-2.77,0.86-5.33,1.33c-1.9,0.36-3.35,0.78-4.36,1.26c-1.01,0.48-1.79,1.18-2.35,2.08c-0.56,0.91-0.84,1.94-0.84,3.1
		c0,1.75,0.61,3.2,1.84,4.34c1.23,1.15,2.91,1.72,5.03,1.72c1.21,0,2.34-0.23,3.41-0.68c1.07-0.46,2.07-1.13,3-2.04
		c0.04,0.1,0.11,0.31,0.19,0.63c0.21,0.7,0.39,1.23,0.53,1.58h5.44c-0.48-0.98-0.81-1.89-0.98-2.75
		C242.78,181.46,242.69,180.13,242.69,178.33z M237.37,176.34c0,1.3-0.07,2.18-0.21,2.64c-0.21,0.71-0.65,1.3-1.31,1.8
		c-0.9,0.64-1.85,0.96-2.83,0.96c-0.89,0-1.61-0.28-2.19-0.83c-0.57-0.55-0.86-1.21-0.86-1.97c0-0.77,0.36-1.41,1.07-1.91
		c0.47-0.3,1.47-0.62,2.99-0.94c1.53-0.32,2.64-0.6,3.34-0.83V176.34z"/>
	<path class="st0" d="M269.95,167.45c-1.67-2.23-3.79-3.34-6.35-3.34c-2.5,0-4.58,0.91-6.26,2.72c-1.67,1.81-2.51,4.44-2.51,7.88
		c0,2.74,0.64,5.03,1.92,6.87c1.63,2.33,3.84,3.49,6.63,3.49c2.51,0,4.59-1.11,6.24-3.35l-0.02,3c0,1.21-0.09,2.04-0.25,2.49
		c-0.25,0.63-0.61,1.09-1.1,1.37c-0.72,0.43-1.79,0.64-3.23,0.64c-1.12,0-1.94-0.2-2.47-0.59c-0.37-0.28-0.61-0.78-0.72-1.51
		l-6.28-0.75c-0.01,0.26-0.02,0.48-0.02,0.66c0,1.84,0.73,3.35,2.21,4.55c1.47,1.19,3.97,1.79,7.49,1.79c1.86,0,3.4-0.19,4.62-0.58
		c1.22-0.38,2.19-0.92,2.92-1.6c0.73-0.69,1.3-1.62,1.7-2.82c0.41-1.19,0.61-3.01,0.61-5.42v-18.4h-5.12V167.45z M268.28,179.12
		c-0.92,1.04-2.05,1.56-3.39,1.56c-1.25,0-2.3-0.51-3.15-1.52c-0.85-1.01-1.27-2.6-1.27-4.77c0-2.07,0.43-3.61,1.27-4.61
		c0.86-1.01,1.93-1.52,3.25-1.52c1.35,0,2.48,0.51,3.36,1.54c0.89,1.03,1.33,2.6,1.33,4.73
		C269.67,176.56,269.21,178.09,268.28,179.12z"/>
	<rect x="427.78" y="156.75" class="st0" width="5.48" height="5.02"/>
	<path class="st0" d="M295.58,164.75c-0.7,0.43-1.49,1.33-2.36,2.71v-2.91h-5.08v20.53h5.48v-6.33c0-3.49,0.15-5.78,0.46-6.87
		c0.31-1.09,0.73-1.85,1.26-2.27c0.53-0.41,1.19-0.63,1.96-0.63c0.79,0,1.65,0.3,2.58,0.89l1.7-4.73c-1.16-0.68-2.37-1.02-3.62-1.02
		C297.08,164.11,296.28,164.32,295.58,164.75z"/>
</g>
</svg>
