<svg width="33" height="33" viewBox="0 0 33 33" fill="none" xmlns="http://www.w3.org/2000/svg">
<g clip-path="url(#clip0_455_1107)">
<path d="M13.8446 15.1456C12.4142 15.1456 11.0159 14.7214 9.8265 13.9267C8.63713 13.132 7.71013 12.0024 7.16272 10.6809C6.61531 9.3593 6.47209 7.90509 6.75115 6.50213C7.03022 5.09918 7.71904 3.81048 8.73052 2.799C9.74199 1.78753 11.0307 1.0987 12.4336 0.819637C13.8366 0.540571 15.2908 0.683798 16.6124 1.2312C17.9339 1.77861 19.0635 2.70561 19.8582 3.89498C20.6529 5.08435 21.0771 6.48267 21.0771 7.91311C21.0771 9.83128 20.3151 11.6709 18.9587 13.0272C17.6024 14.3836 15.7628 15.1456 13.8446 15.1456ZM13.8446 2.82974C12.8229 2.82974 11.8241 3.13272 10.9745 3.70037C10.125 4.26802 9.46284 5.07485 9.07184 6.01882C8.68083 6.96279 8.57853 8.0015 8.77786 9.00362C8.97719 10.0057 9.46921 10.9262 10.1917 11.6487C10.9142 12.3712 11.8347 12.8632 12.8368 13.0625C13.8389 13.2619 14.8776 13.1596 15.8216 12.7686C16.7656 12.3776 17.5724 11.7154 18.14 10.8659C18.7077 10.0163 19.0107 9.01752 19.0107 7.99577C19.0107 7.31736 18.877 6.64559 18.6174 6.01882C18.3578 5.39204 17.9773 4.82254 17.4976 4.34283C17.0179 3.86312 16.4484 3.4826 15.8216 3.22298C15.1948 2.96336 14.523 2.82974 13.8446 2.82974ZM19.5996 16.3957C14.0084 15.1368 8.15872 15.7428 2.9443 18.1212C2.22714 18.4638 1.62206 19.003 1.19952 19.6762C0.776979 20.3493 0.55436 21.1286 0.557591 21.9234V28.071C0.557591 28.2067 0.584316 28.341 0.636239 28.4664C0.688163 28.5917 0.764268 28.7056 0.86021 28.8016C0.956152 28.8975 1.07005 28.9736 1.19541 29.0255C1.32076 29.0775 1.45512 29.1042 1.5908 29.1042C1.72648 29.1042 1.86083 29.0775 1.98619 29.0255C2.11154 28.9736 2.22544 28.8975 2.32139 28.8016C2.41733 28.7056 2.49343 28.5917 2.54536 28.4664C2.59728 28.341 2.624 28.2067 2.624 28.071V21.9234C2.61501 21.5212 2.72363 21.1251 2.93653 20.7837C3.14943 20.4423 3.45736 20.1705 3.82252 20.0016C6.96364 18.5509 10.3847 17.8067 13.8446 17.8216C15.7832 17.8193 17.7152 18.0482 19.5996 18.5035V16.3957ZM19.7442 26.2215H26.0881V27.668H19.7442V26.2215Z" fill="black"/>
<path d="M31.1406 20.0852H25.7989V22.1516H30.1073V30.7996H15.4668V22.1516H21.976V22.5856C21.976 22.8596 22.0849 23.1224 22.2786 23.3162C22.4724 23.5099 22.7352 23.6188 23.0092 23.6188C23.2832 23.6188 23.546 23.5099 23.7398 23.3162C23.9336 23.1224 24.0424 22.8596 24.0424 22.5856V18.5664C24.0424 18.2924 23.9336 18.0296 23.7398 17.8358C23.546 17.6421 23.2832 17.5332 23.0092 17.5332C22.7352 17.5332 22.4724 17.6421 22.2786 17.8358C22.0849 18.0296 21.976 18.2924 21.976 18.5664V20.0852H14.4336C14.1596 20.0852 13.8968 20.1941 13.703 20.3878C13.5092 20.5816 13.4004 20.8444 13.4004 21.1184V31.8328C13.4004 32.1068 13.5092 32.3696 13.703 32.5634C13.8968 32.7571 14.1596 32.866 14.4336 32.866H31.1406C31.4146 32.866 31.6774 32.7571 31.8711 32.5634C32.0649 32.3696 32.1738 32.1068 32.1738 31.8328V21.1184C32.1738 20.8444 32.0649 20.5816 31.8711 20.3878C31.6774 20.1941 31.4146 20.0852 31.1406 20.0852Z" fill="black"/>
</g>
<defs>
<clipPath id="clip0_455_1107">
<rect width="33" height="33" fill="white"/>
</clipPath>
</defs>
</svg>
