<svg width="33" height="29" viewBox="0 0 33 29" fill="none" xmlns="http://www.w3.org/2000/svg">
<path d="M25.4912 12.5825C25.9316 13.356 26.2593 14.1616 26.4741 14.9995C26.689 15.8374 26.8018 16.7021 26.8125 17.5938V19.2534L16.5 24.4258L6.1875 19.2534C6.1875 18.6089 6.19287 18.0073 6.20361 17.4487C6.21436 16.8901 6.2627 16.3477 6.34863 15.8213C6.43457 15.2949 6.56348 14.7686 6.73535 14.2422C6.90723 13.7158 7.16504 13.1626 7.50879 12.5825L4.125 10.8906V20.3491C4.43652 20.4565 4.71582 20.6069 4.96289 20.8003C5.20996 20.9937 5.43018 21.2192 5.62354 21.4771C5.81689 21.7349 5.95654 22.0142 6.04248 22.3149C6.12842 22.6157 6.17676 22.9326 6.1875 23.2656V28.4219H0V23.2656C0 22.9434 0.0483398 22.6318 0.14502 22.3311C0.241699 22.0303 0.381348 21.7456 0.563965 21.4771C0.746582 21.2085 0.961426 20.9829 1.2085 20.8003C1.45557 20.6177 1.74023 20.4673 2.0625 20.3491V9.85938L0 8.82812L16.5 0.578125L33 8.82812L25.4912 12.5825ZM4.125 23.2656C4.125 22.9863 4.02295 22.7446 3.81885 22.5405C3.61475 22.3364 3.37305 22.2344 3.09375 22.2344C2.81445 22.2344 2.57275 22.3364 2.36865 22.5405C2.16455 22.7446 2.0625 22.9863 2.0625 23.2656V26.3594H4.125V23.2656ZM4.6084 8.82812L16.5 14.7739L28.3916 8.82812L16.5 2.88232L4.6084 8.82812ZM24.75 17.9805C24.75 17.1533 24.6694 16.3853 24.5083 15.6763C24.3472 14.9673 24.0625 14.2422 23.6543 13.501L16.5 17.0781L9.3457 13.501C8.99121 14.124 8.72266 14.7793 8.54004 15.4668C8.35742 16.1543 8.26074 16.8633 8.25 17.5938V17.9805L16.5 22.1055L24.75 17.9805Z" fill="black"/>
</svg>
