<svg width="37" height="37" viewBox="0 0 37 37" fill="none" xmlns="http://www.w3.org/2000/svg">
<path d="M33.167 9.33304C33.4078 9.33304 33.6462 9.38048 33.8686 9.47266C34.0911 9.56483 34.2932 9.69993 34.4634 9.87024C34.6337 10.0405 34.7687 10.2427 34.8607 10.4652C34.9528 10.6877 35.0001 10.9262 35 11.167V33.167C35 33.6531 34.8069 34.1194 34.4631 34.4631C34.1194 34.8069 33.6531 35 33.167 35H3.83304C3.34689 35 2.88065 34.8069 2.53689 34.4631C2.19312 34.1194 2 33.6531 2 33.167V11.167C1.99988 10.9262 2.04721 10.6877 2.13928 10.4652C2.23135 10.2427 2.36635 10.0405 2.53657 9.87024C2.7068 9.69993 2.90891 9.56483 3.13136 9.47266C3.35381 9.38048 3.59225 9.33304 3.83304 9.33304M33.167 9.33304H3.83304M33.167 9.33304C33.4625 9.33334 33.7536 9.40437 34.0154 9.54168C34.2771 9.67899 34.5017 9.87765 34.67 10.1207L31.333 17.7291C30.7714 19.0366 29.8414 20.1523 28.6565 20.9402C27.4715 21.7281 26.0829 22.154 24.66 22.1661H20.333M3.83304 9.33304C3.53746 9.33334 3.24635 9.40437 2.9846 9.54168C2.72285 9.67899 2.49825 9.87765 2.33 10.1207L5.66696 17.7291C6.22858 19.0366 7.15859 20.1523 8.34352 20.9402C9.52846 21.7281 10.9171 22.154 12.34 22.1661H16.667M25.833 3.83304C25.833 3.34689 25.6399 2.88065 25.2962 2.53688C24.9524 2.19312 24.4862 2 24 2H13C12.5138 2 12.0476 2.19312 11.7038 2.53688C11.3601 2.88065 11.167 3.34689 11.167 3.83304V9.33304H25.833V3.83304ZM20.333 20.3322H16.667V23.9991H20.333V20.3322Z" stroke="black" stroke-width="2.5" stroke-linecap="round" stroke-linejoin="round"/>
</svg>
