<svg width="11" height="15" viewBox="0 0 11 15" fill="none" xmlns="http://www.w3.org/2000/svg">
<g clip-path="url(#clip0_2578_1608)">
<path d="M8.99895 8.43656L9.41853 5.72428H6.81114V3.95604C6.81114 3.53646 6.92103 3.2018 7.14081 2.95205C7.40055 2.64236 7.80015 2.48751 8.33961 2.48751H9.52342V0.17982L8.8491 0.0899105C8.31963 0.0299702 7.8451 0 7.42552 0C6.70624 0 6.07937 0.142358 5.5449 0.427073C5.01044 0.711788 4.59835 1.12887 4.30864 1.67832C4.01893 2.22777 3.87407 2.88711 3.87407 3.65634V5.72428H1.49146V8.43656H3.87407V15H6.81114V8.43656H8.99895Z" fill="#666666"/>
</g>
<defs>
<clipPath id="clip0_2578_1608">
<rect width="9.38" height="15" fill="white" transform="matrix(1 0 0 -1 0.810059 15)"/>
</clipPath>
</defs>
</svg>
