<svg width="33" height="33" viewBox="0 0 33 33" fill="none" xmlns="http://www.w3.org/2000/svg">
<g clip-path="url(#clip0_455_1080)">
<path d="M9.65641 30.8785C6.57082 29.3649 4.08749 26.8527 2.60964 23.7498C1.13179 20.6469 0.746201 17.1356 1.51549 13.786C2.28478 10.4363 4.16377 7.44508 6.84736 5.29793C9.53096 3.15079 12.8616 1.97383 16.2984 1.95817C19.7352 1.9425 23.0764 3.08905 25.7794 5.21164C28.4825 7.33424 30.3887 10.3082 31.1884 13.6507C31.9882 16.9932 31.6347 20.5079 30.1852 23.6241C28.7357 26.7403 26.2753 29.2751 23.2037 30.8168" stroke="black" stroke-width="2.5" stroke-linecap="round" stroke-linejoin="round"/>
<path d="M14.2543 20.8271L14.2301 20.9181L14.4461 19.3211L15.5513 14.2523C15.6401 13.8447 15.4874 13.4223 15.1585 13.1658C14.8296 12.9093 14.3827 12.8641 14.0091 13.0496L12.7695 13.665L14.9383 12.3556L16.9846 12.4034L18.3714 13.6459L18.7199 14.2261L17.8768 14C17.5989 13.9254 17.3028 13.9644 17.0536 14.1082C16.8045 14.252 16.6226 14.4889 16.5481 14.7668L15.5822 18.3699C15.5077 18.6479 15.5467 18.9441 15.6906 19.1933L16.739 21.0085L16.0692 20.3391C15.7949 20.065 15.3952 19.9582 15.0208 20.0589C14.6464 20.1595 14.3541 20.4524 14.2543 20.8271ZM11.4489 14.8317L12.2126 15.1526L11.4489 14.8317L11.4489 14.8317ZM18.3642 26.15L18.1677 25.1328L18.4618 26.2308C18.4575 26.2288 18.4532 26.2265 18.4487 26.2239C18.4216 26.2086 18.3919 26.1852 18.3642 26.15ZM11.2467 26.4278C11.2467 26.4278 11.2468 26.4265 11.2475 26.424C11.2471 26.4265 11.2468 26.4278 11.2467 26.4278ZM18.4792 8.29722C18.4792 8.78134 18.0868 9.17379 17.6026 9.17379C17.1185 9.17379 16.7261 8.78134 16.7261 8.29722C16.7261 7.81311 17.1185 7.42065 17.6026 7.42065C18.0868 7.42065 18.4792 7.81311 18.4792 8.29722Z" stroke="black" stroke-width="2.16943" stroke-linecap="round" stroke-linejoin="round"/>
</g>
<defs>
<clipPath id="clip0_455_1080">
<rect width="33" height="31.9355" fill="white" transform="translate(0 0.532227)"/>
</clipPath>
</defs>
</svg>
