<svg width="23" height="21" viewBox="0 0 23 21" fill="none" xmlns="http://www.w3.org/2000/svg">
<path d="M11.891 1C6.6629 1 2.38541 5.27749 2.38541 10.5055C2.38541 12.4066 2.9399 14.2285 3.96967 15.7336L2.38541 19.4566C2.22699 19.7734 2.54384 20.0903 2.9399 20.0111L6.6629 18.4268C8.16795 19.4566 9.98985 20.0111 11.891 20.0111C17.119 20.0111 21.3965 15.7336 21.3965 10.5055C21.3965 5.27749 17.119 1 11.891 1Z" stroke="black" stroke-width="1.5" stroke-miterlimit="10" stroke-linecap="round" stroke-linejoin="round"/>
<path d="M11.8917 15.26C12.3292 15.26 12.6839 14.9054 12.6839 14.4679C12.6839 14.0304 12.3292 13.6758 11.8917 13.6758C11.4543 13.6758 11.0996 14.0304 11.0996 14.4679C11.0996 14.9054 11.4543 15.26 11.8917 15.26Z" fill="black"/>
<path d="M11.8911 12.4073L11.8119 10.8231C13.0793 10.8231 14.1883 9.7933 14.1883 8.4467C14.1883 7.1001 13.1585 6.07031 11.8119 6.07031C10.4653 6.07031 9.43555 7.1001 9.43555 8.4467H9.51475C9.51475 7.1001 10.6237 6.07031 11.8911 6.07031C13.1585 6.07031 14.2675 7.1793 14.2675 8.4467C14.2675 9.7933 13.2377 10.8231 11.8911 10.8231V12.4073Z" stroke="black" stroke-width="1.5" stroke-miterlimit="10" stroke-linecap="round" stroke-linejoin="round"/>
</svg>
