<svg width="15" height="15" viewBox="0 0 15 15" fill="none" xmlns="http://www.w3.org/2000/svg">
<g clip-path="url(#clip0_2578_1618)">
<path d="M7.50741 4.13589C6.89849 4.13589 6.33698 4.28574 5.82288 4.58544C5.30879 4.88514 4.89951 5.29223 4.59505 5.80672C4.29058 6.3212 4.13835 6.88314 4.13835 7.49253C4.13835 8.10192 4.29058 8.66636 4.59505 9.18584C4.89951 9.70532 5.30879 10.1149 5.82288 10.4146C6.33698 10.7143 6.89849 10.8642 7.50741 10.8642C8.11634 10.8642 8.67785 10.7143 9.19194 10.4146C9.70604 10.1149 10.1153 9.70532 10.4198 9.18584C10.7242 8.66636 10.8765 8.10192 10.8765 7.49253C10.8765 6.88314 10.7242 6.3212 10.4198 5.80672C10.1153 5.29223 9.70604 4.88514 9.19194 4.58544C8.67785 4.28574 8.11634 4.13589 7.50741 4.13589ZM7.50741 9.68035C7.1181 9.68035 6.75374 9.58294 6.41434 9.38814C6.07494 9.19333 5.80791 8.9286 5.61325 8.59393C5.41859 8.25927 5.32127 7.89463 5.32127 7.50003C5.32127 7.10542 5.41859 6.74078 5.61325 6.40612C5.80791 6.07145 6.07494 5.80422 6.41434 5.60442C6.75374 5.40462 7.12059 5.30472 7.5149 5.30472C7.9092 5.30472 8.27356 5.40462 8.60797 5.60442C8.94238 5.80422 9.20692 6.07145 9.40157 6.40612C9.59623 6.74078 9.69356 7.10542 9.69356 7.50003C9.69356 7.89463 9.59623 8.25927 9.40157 8.59393C9.20692 8.9286 8.94238 9.19333 8.60797 9.38814C8.27356 9.58294 7.90671 9.68035 7.50741 9.68035ZM11.7899 3.98604C11.7899 4.20582 11.715 4.39313 11.5653 4.54798C11.4155 4.70282 11.2308 4.78024 11.0112 4.78024C10.7916 4.78024 10.6069 4.70282 10.4572 4.54798C10.3075 4.39313 10.2326 4.20832 10.2326 3.99353C10.2326 3.77875 10.3075 3.59393 10.4572 3.43909C10.6069 3.28424 10.7916 3.20682 11.0112 3.20682C11.2308 3.20682 11.4155 3.28424 11.5653 3.43909C11.715 3.59393 11.7899 3.77625 11.7899 3.98604ZM14.0209 4.79523C13.991 4.21581 13.9061 3.7213 13.7664 3.31171C13.5967 2.8222 13.3296 2.39763 12.9653 2.03799C12.6009 1.67835 12.1792 1.41361 11.7 1.24378C11.2808 1.09393 10.7866 1.00402 10.2176 0.974051C9.67858 0.944081 8.77767 0.929096 7.5149 0.929096C6.25213 0.929096 5.34622 0.944081 4.79719 0.974051C4.22819 1.00402 3.73906 1.09393 3.32978 1.24378C2.84064 1.41361 2.41389 1.67835 2.04953 2.03799C1.68518 2.39763 1.41815 2.8222 1.24845 3.31171C1.10869 3.7213 1.02384 4.21081 0.993895 4.78024C0.963948 5.3297 0.948975 6.23629 0.948975 7.50003C0.948975 8.76376 0.963948 9.66536 0.993895 10.2048C1.02384 10.7743 1.10869 11.2688 1.24845 11.6883C1.41815 12.1679 1.68518 12.5899 2.04953 12.9546C2.41389 13.3192 2.83565 13.5864 3.3148 13.7563C3.73406 13.8961 4.22819 13.981 4.79719 14.011C5.34622 14.041 6.25213 14.056 7.5149 14.056C8.77767 14.056 9.67858 14.041 10.2176 14.011C10.7866 13.991 11.2808 13.9061 11.7 13.7563C12.1792 13.5864 12.5984 13.3192 12.9578 12.9546C13.3172 12.5899 13.5867 12.1679 13.7664 11.6883C13.9061 11.2688 13.991 10.7743 14.0209 10.2048C14.0509 9.66536 14.0658 8.76376 14.0658 7.50003C14.0658 6.23629 14.0509 5.33469 14.0209 4.79523ZM12.6284 11.3737C12.5086 11.6534 12.3414 11.9006 12.1268 12.1154C11.9121 12.3302 11.6601 12.4975 11.3706 12.6174C11.0512 12.7473 10.5271 12.8272 9.79837 12.8572C9.37911 12.8771 8.77019 12.8871 7.97159 12.8871H7.0582C6.25961 12.8871 5.65069 12.8771 5.23142 12.8572C4.49273 12.8272 3.96366 12.7473 3.64422 12.6174C3.35473 12.4975 3.10268 12.3302 2.88806 12.1154C2.67343 11.9006 2.51122 11.6534 2.40141 11.3737C2.27164 11.044 2.18679 10.5145 2.14686 9.78524C2.1269 9.36566 2.12191 8.76126 2.13189 7.97205V7.04298C2.12191 6.24378 2.1269 5.63439 2.14686 5.21481C2.18679 4.47555 2.27164 3.94608 2.40141 3.6264C2.51122 3.33669 2.67343 3.08444 2.88806 2.86966C3.10268 2.65487 3.35473 2.49253 3.64422 2.38264C3.96366 2.25277 4.49273 2.16786 5.23142 2.1279C5.65069 2.10792 6.25462 2.10292 7.04323 2.11291H7.97159C8.7602 2.10292 9.36414 2.10792 9.7834 2.1279C10.5221 2.16786 11.0512 2.25277 11.3706 2.38264C11.6601 2.49253 11.9121 2.65487 12.1268 2.86966C12.3414 3.08444 12.5086 3.33669 12.6284 3.6264C12.7582 3.94608 12.838 4.47555 12.868 5.21481C12.8879 5.63439 12.8979 6.23879 12.8979 7.028V7.97205C12.8979 8.76126 12.8879 9.36566 12.868 9.78524C12.838 10.5145 12.7582 11.044 12.6284 11.3737Z" fill="#666666"/>
</g>
<defs>
<clipPath id="clip0_2578_1618">
<rect width="13.12" height="15" fill="white" transform="matrix(1 0 0 -1 0.939941 15)"/>
</clipPath>
</defs>
</svg>
