<svg width="33" height="33" viewBox="0 0 33 33" fill="none" xmlns="http://www.w3.org/2000/svg">
<path d="M9.68408 18.5625L14.4375 32.8389V33H12.3267L10.9409 28.875H5.55908L4.17334 33H2.0625V32.8389L6.81592 18.5625H9.68408ZM10.2642 26.8125L8.25 20.7861L6.23584 26.8125H10.2642ZM14.3892 8.25C14.4214 8.94824 14.4375 9.63574 14.4375 10.3125V11.3438C14.4375 11.6875 14.4268 12.0312 14.4053 12.375H12.375V14.4375H8.42725L8.58838 15.4688C8.64209 15.8125 8.71729 16.1562 8.81396 16.5H6.73535C6.64941 16.1562 6.58496 15.8125 6.54199 15.4688C6.49902 15.125 6.45068 14.7812 6.39697 14.4375H3.0293C3.24414 14.8242 3.49121 15.1895 3.77051 15.5332C4.0498 15.877 4.35596 16.1992 4.68896 16.5H4.125L3.3999 17.9502C2.31494 16.9727 1.47705 15.8232 0.88623 14.502C0.29541 13.1807 0 11.7842 0 10.3125C0 9.36719 0.123535 8.4541 0.370605 7.57324C0.617676 6.69238 0.961426 5.87061 1.40186 5.10791C1.84229 4.34521 2.37939 3.65234 3.01318 3.0293C3.64697 2.40625 4.34521 1.86914 5.10791 1.41797C5.87061 0.966797 6.69238 0.617676 7.57324 0.370605C8.4541 0.123535 9.36719 0 10.3125 0C11.2578 0 12.1709 0.123535 13.0518 0.370605C13.9326 0.617676 14.7544 0.961426 15.5171 1.40186C16.2798 1.84229 16.9727 2.37939 17.5957 3.01318C18.2188 3.64697 18.7559 4.34521 19.207 5.10791C19.6582 5.87061 20.0073 6.69238 20.2544 7.57324C20.5015 8.4541 20.625 9.36719 20.625 10.3125C20.625 10.6562 20.6089 11 20.5767 11.3438C20.5444 11.6875 20.4907 12.0312 20.4155 12.375H18.4175C18.6001 11.6768 18.6914 10.9893 18.6914 10.3125C18.6914 9.63574 18.6001 8.94824 18.4175 8.25H14.3892ZM10.3125 1.93359C10.1084 1.93359 9.92578 2.01953 9.76465 2.19141C9.60352 2.36328 9.45312 2.5835 9.31348 2.85205C9.17383 3.12061 9.05566 3.42139 8.95898 3.75439C8.8623 4.0874 8.78174 4.40967 8.71729 4.72119C8.65283 5.03271 8.59375 5.32275 8.54004 5.59131C8.48633 5.85986 8.4541 6.05859 8.44336 6.1875H12.1655C12.144 6.06934 12.1118 5.88135 12.0688 5.62354C12.0259 5.36572 11.9722 5.07568 11.9077 4.75342C11.8433 4.43115 11.7573 4.10889 11.6499 3.78662C11.5425 3.46436 11.4243 3.16357 11.2954 2.88428C11.1665 2.60498 11.0161 2.37939 10.8442 2.20752C10.6724 2.03564 10.4951 1.94434 10.3125 1.93359ZM6.23584 12.375C6.20361 11.6875 6.1875 11 6.1875 10.3125C6.1875 9.63574 6.20361 8.94824 6.23584 8.25H2.20752C2.0249 8.94824 1.93359 9.63574 1.93359 10.3125C1.93359 10.9893 2.0249 11.6768 2.20752 12.375H6.23584ZM6.41309 6.1875C6.47754 5.56445 6.57422 4.94141 6.70312 4.31836C6.83203 3.69531 7.01465 3.09375 7.25098 2.51367C6.35938 2.86816 5.55371 3.35693 4.83398 3.97998C4.11426 4.60303 3.5127 5.33887 3.0293 6.1875H6.41309ZM12.3589 12.375C12.3911 11.6875 12.4072 11 12.4072 10.3125C12.4072 9.63574 12.3911 8.94824 12.3589 8.25H8.26611C8.23389 8.94824 8.21777 9.63574 8.21777 10.3125C8.21777 11 8.23389 11.6875 8.26611 12.375H12.3589ZM13.2935 2.49756C13.5405 3.07764 13.7339 3.6792 13.8735 4.30225C14.0132 4.92529 14.1206 5.55371 14.1958 6.1875H17.5957C17.1123 5.34961 16.5054 4.61377 15.7749 3.97998C15.0444 3.34619 14.2173 2.85205 13.2935 2.49756ZM22.4136 14.3247C22.4136 14.0024 22.4082 13.6748 22.3975 13.3418C22.3867 13.0088 22.3438 12.6865 22.2686 12.375C23.0098 12.375 23.7456 12.4072 24.4761 12.4717C24.5405 12.4824 24.605 12.4985 24.6694 12.52C24.7339 12.5415 24.7715 12.5952 24.7822 12.6812C24.7822 12.7349 24.7661 12.7993 24.7339 12.8745C24.7017 12.9497 24.6748 13.0142 24.6533 13.0679C24.6318 13.1323 24.6157 13.2183 24.605 13.3257C24.5942 13.4331 24.5835 13.5459 24.5728 13.6641C24.562 13.7822 24.5566 13.9004 24.5566 14.0186C24.5566 14.1367 24.5566 14.228 24.5566 14.2925V14.502H29.3262C29.7773 14.502 30.2231 14.4966 30.6636 14.4858C31.104 14.4751 31.5552 14.4644 32.0171 14.4536C32.0923 14.4536 32.1621 14.4697 32.2266 14.502C32.2588 14.5557 32.2749 14.6094 32.2749 14.6631C32.2642 14.8457 32.2534 15.0337 32.2427 15.2271C32.2319 15.4204 32.2266 15.6138 32.2266 15.8071V16.7417C32.2266 17.1284 32.2319 17.5151 32.2427 17.9019C32.2534 18.2886 32.2642 18.6807 32.2749 19.0781V19.1909C32.2749 19.2339 32.2588 19.2661 32.2266 19.2876C32.1406 19.3091 32.0708 19.3198 32.0171 19.3198H31.6143C31.3994 19.3198 31.1792 19.3252 30.9536 19.3359C30.7495 19.3359 30.5669 19.3306 30.4058 19.3198C30.2446 19.3091 30.1533 19.293 30.1318 19.2715C30.1104 19.1855 30.0996 19.0566 30.0996 18.8848C30.0996 18.7129 30.0942 18.5195 30.0835 18.3047C30.0835 17.9502 30.0889 17.585 30.0996 17.209C30.1104 16.833 30.1157 16.5537 30.1157 16.3711H17.1929V16.9995C17.1929 17.1606 17.1982 17.3271 17.209 17.499C17.2197 17.6709 17.2197 17.8535 17.209 18.0469C17.209 18.3584 17.2036 18.6377 17.1929 18.8848C17.1821 19.1318 17.166 19.2715 17.1445 19.3037C17.0586 19.3252 16.9888 19.3359 16.9351 19.3359H15.2915C15.1733 19.3359 15.1035 19.3198 15.082 19.2876C15.0605 19.2554 15.0498 19.1855 15.0498 19.0781C15.0605 18.6484 15.0659 18.2241 15.0659 17.8052C15.0659 17.3862 15.0659 16.9619 15.0659 16.5322V15.5977C15.0659 15.2861 15.0605 14.9746 15.0498 14.6631C15.0498 14.6094 15.0605 14.5503 15.082 14.4858C15.168 14.4644 15.2378 14.4536 15.2915 14.4536C15.7427 14.4644 16.1885 14.4751 16.6289 14.4858C17.0693 14.4966 17.5205 14.502 17.9824 14.502H22.4136V14.3247ZM32.71 23.2354C32.7314 23.3213 32.7422 23.3911 32.7422 23.4448V24.9917C32.7422 25.0347 32.7314 25.0991 32.71 25.1851C32.624 25.2065 32.5542 25.2173 32.5005 25.2173C32.0708 25.2065 31.6465 25.1958 31.2275 25.1851C30.8086 25.1743 30.3843 25.1689 29.9546 25.1689H24.7822V25.7007C24.7822 26.2593 24.7876 26.8179 24.7983 27.3765C24.8091 27.9351 24.8252 28.4937 24.8467 29.0522V29.1167C24.8467 29.3745 24.7983 29.6323 24.7017 29.8901C24.605 30.1479 24.4492 30.3521 24.2344 30.5024C24.084 30.6099 23.8745 30.6904 23.606 30.7441C23.3374 30.7979 23.042 30.8408 22.7197 30.873C22.3975 30.9053 22.0967 30.9214 21.8174 30.9214C21.5381 30.9214 21.3018 30.9268 21.1084 30.9375H20.8022C20.6626 30.9375 20.5659 30.9053 20.5122 30.8408C20.48 30.8086 20.4424 30.7227 20.3994 30.583C20.3564 30.4434 20.3242 30.3467 20.3027 30.293C20.2275 30.0137 20.1416 29.7559 20.0449 29.5195C19.9482 29.2832 19.8193 29.0361 19.6582 28.7783C20.0234 28.8213 20.3887 28.8481 20.7539 28.8589C21.1191 28.8696 21.4844 28.8804 21.8496 28.8911C22.1074 28.8911 22.3008 28.8535 22.4297 28.7783C22.5586 28.7031 22.6284 28.5205 22.6392 28.2305V25.1689H17.499C17.0693 25.1689 16.6396 25.1743 16.21 25.1851C15.7803 25.1958 15.3506 25.2065 14.9209 25.2173C14.835 25.2173 14.7705 25.2012 14.7275 25.1689C14.7061 25.1045 14.6953 25.0454 14.6953 24.9917V23.332C14.6953 23.2891 14.7114 23.2515 14.7437 23.2192C14.8081 23.1978 14.8672 23.187 14.9209 23.187L16.21 23.2192C16.6396 23.23 17.0693 23.2354 17.499 23.2354H22.6392C22.6177 22.9561 22.6069 22.6768 22.6069 22.3975C22.6069 22.1182 22.5747 21.8335 22.5103 21.5435C22.7251 21.5649 22.9346 21.5811 23.1387 21.5918C23.3428 21.6025 23.5576 21.624 23.7832 21.6562H23.8315C23.8423 21.6562 23.8638 21.6616 23.896 21.6724C24.272 21.4038 24.6318 21.1191 24.9756 20.8184C25.3193 20.5176 25.6631 20.2114 26.0068 19.8999H21.0439C20.5928 19.8999 20.147 19.9053 19.7065 19.916C19.2661 19.9268 18.8149 19.9375 18.353 19.9482C18.2671 19.9482 18.2026 19.9321 18.1597 19.8999C18.1382 19.8354 18.1274 19.7764 18.1274 19.7227V18.1919C18.1274 18.1489 18.1382 18.0845 18.1597 17.9985C18.2456 17.9771 18.3101 17.9663 18.353 17.9663C18.8042 17.9771 19.25 17.9878 19.6904 17.9985C20.1309 18.0093 20.582 18.0146 21.0439 18.0146H27.0542C27.2261 18.0146 27.3872 17.9932 27.5376 17.9502C27.688 17.9072 27.8223 17.8804 27.9404 17.8696C28.0264 17.8696 28.1499 17.9341 28.311 18.063C28.4722 18.1919 28.6333 18.3423 28.7944 18.5142C28.9556 18.686 29.0952 18.8579 29.2134 19.0298C29.3315 19.2017 29.396 19.3359 29.4067 19.4326C29.4067 19.54 29.3745 19.6206 29.3101 19.6743C29.2456 19.728 29.165 19.7817 29.0684 19.8354C28.918 19.9106 28.7729 20.0073 28.6333 20.1255C28.4937 20.2437 28.3594 20.3564 28.2305 20.4639C27.6719 20.9258 27.1133 21.3716 26.5547 21.8013C25.9961 22.231 25.4053 22.6499 24.7822 23.0581V23.2354H29.9546C30.3843 23.2354 30.8086 23.23 31.2275 23.2192C31.6465 23.2085 32.0708 23.1978 32.5005 23.187C32.5757 23.187 32.6455 23.2031 32.71 23.2354Z" fill="black"/>
</svg>
