<svg width="30" height="36" viewBox="0 0 30 36" fill="none" xmlns="http://www.w3.org/2000/svg">
<path d="M16.3283 33.6795C16.0382 33.8879 15.69 34 15.3328 34C14.9755 34 14.6273 33.8879 14.3372 33.6795C5.75244 27.5605 -3.35854 14.974 5.852 5.87906C8.38057 3.39171 11.7858 1.99844 15.3328 2C18.8883 2 22.2998 3.39554 24.8135 5.87728C34.024 14.9723 24.9131 27.557 16.3283 33.6795Z" stroke="black" stroke-width="2.5" stroke-linecap="round" stroke-linejoin="round"/>
<path d="M15.3328 17.9997C16.2757 17.9997 17.1801 17.6251 17.8469 16.9583C18.5137 16.2915 18.8883 15.3872 18.8883 14.4442C18.8883 13.5012 18.5137 12.5968 17.8469 11.9301C17.1801 11.2633 16.2757 10.8887 15.3328 10.8887C14.3898 10.8887 13.4854 11.2633 12.8186 11.9301C12.1518 12.5968 11.7773 13.5012 11.7773 14.4442C11.7773 15.3872 12.1518 16.2915 12.8186 16.9583C13.4854 17.6251 14.3898 17.9997 15.3328 17.9997Z" stroke="black" stroke-width="2.5" stroke-linecap="round" stroke-linejoin="round"/>
</svg>
