<svg width="10" height="25" viewBox="0 0 10 25" fill="none" xmlns="http://www.w3.org/2000/svg">
<g clip-path="url(#clip0_2578_1296)">
<path d="M9.30354 12.8858L2.42243 19.8148C2.31054 19.9267 2.17867 19.9827 2.02682 19.9827C1.87497 19.9827 1.74311 19.9267 1.63122 19.8148L0.696152 18.9037C0.584264 18.7919 0.52832 18.656 0.52832 18.4962C0.52832 18.3363 0.584264 18.2084 0.696152 18.1125L6.25859 12.4782L0.696152 6.86778C0.584264 6.77188 0.52832 6.644 0.52832 6.48416C0.52832 6.32432 0.584264 6.18846 0.696152 6.07657L1.63122 5.16548C1.74311 5.05359 1.87497 4.99765 2.02682 4.99765C2.17867 4.99765 2.31054 5.05359 2.42243 5.16548L9.30354 12.0946C9.41543 12.2064 9.47138 12.3383 9.47138 12.4902C9.47138 12.642 9.41543 12.7739 9.30354 12.8858Z" fill="#222222"/>
</g>
<defs>
<clipPath id="clip0_2578_1296">
<rect width="9" height="24" fill="white" transform="matrix(1 0 0 -1 0.5 24.4902)"/>
</clipPath>
</defs>
</svg>
