<svg width="29" height="35" viewBox="0 0 29 35" fill="none" xmlns="http://www.w3.org/2000/svg">
<path d="M1.21063 7.17279V28.1573C1.21063 29.4416 1.72083 30.6734 2.62899 31.5815C3.53715 32.4897 4.76888 32.9999 6.05321 32.9999H22.1951C23.4795 32.9999 24.7112 32.4897 25.6194 31.5815C26.5275 30.6734 27.0377 29.4416 27.0377 28.1573V20.0863M1.21063 7.17279V5.55859M1.21063 7.17279H22.1951C23.4795 7.17279 24.7112 7.68299 25.6194 8.59115C26.5275 9.49931 27.0377 10.731 27.0377 12.0154V13.6296" stroke="black" stroke-width="2.42129" stroke-linecap="round"/>
<path d="M9.28162 18.4715C9.28162 17.5137 9.56563 16.5775 10.0977 15.7811C10.6298 14.9847 11.3862 14.3641 12.271 13.9975C13.1559 13.631 14.1296 13.5351 15.0689 13.722C16.0083 13.9088 16.8712 14.37 17.5484 15.0473C18.2257 15.7245 18.6869 16.5874 18.8737 17.5267C19.0606 18.4661 18.9647 19.4398 18.5982 20.3247C18.2316 21.2095 17.6109 21.9658 16.8146 22.4979C16.0182 23.0301 15.082 23.3141 14.1242 23.3141" stroke="black" stroke-width="2.42129" stroke-linecap="round"/>
<path d="M23.8093 7.17291V8.38356H25.02V7.17291H23.8093ZM2.93783 8.38356H23.8093V5.96227H2.93945L2.93783 8.38356ZM25.02 7.17291V4.43847H22.5987V7.17291H25.02ZM19.953 0.0446359L2.5246 2.53372L2.86681 4.9308L20.2952 2.44333L19.953 0.0446359ZM2.5246 2.53372C1.82349 2.63333 1.18195 2.98283 0.718069 3.5179C0.254189 4.05296 -0.000812883 4.73757 1.94675e-06 5.44573H2.42129C2.42089 5.32074 2.46581 5.19986 2.54773 5.10547C2.62965 5.01108 2.74301 4.94798 2.86681 4.9308L2.5246 2.53372ZM25.02 4.43847C25.0199 3.80252 24.8832 3.174 24.6191 2.59548C24.355 2.01697 23.9696 1.50195 23.4892 1.08531C23.0087 0.668675 22.4443 0.360136 21.8342 0.180589C21.2241 0.00104122 20.5826 -0.0453228 19.953 0.0446359L20.2952 2.44333C20.5814 2.4024 20.873 2.42181 21.1503 2.50338C21.4276 2.58494 21.6842 2.72514 21.9026 2.91448C22.121 3.10382 22.2962 3.33788 22.4163 3.60081C22.5364 3.86374 22.5986 4.14941 22.5987 4.43847H25.02ZM2.93945 5.96227C2.87134 5.96248 2.80387 5.94922 2.74091 5.92326C2.67794 5.89729 2.62074 5.85914 2.57258 5.81098C2.52442 5.76282 2.48626 5.70562 2.4603 5.64265C2.43433 5.57969 2.42108 5.51383 2.42129 5.44573H1.94675e-06C-0.00021024 5.8318 0.0756759 6.21251 0.223322 6.56924C0.370967 6.92596 0.587477 7.25009 0.860472 7.52309C1.13347 7.79608 1.45759 8.01259 1.81432 8.16024C2.17105 8.30788 2.55176 8.38377 2.93783 8.38356L2.93945 5.96227Z" fill="black"/>
<path d="M10.8958 28.1572H17.3526" stroke="black" stroke-width="2.42129" stroke-linecap="round"/>
</svg>
