<svg width="15" height="15" viewBox="0 0 15 15" fill="none" xmlns="http://www.w3.org/2000/svg">
<path d="M4.98999 12.6324C5.00997 12.3926 5.04493 12.1579 5.09488 11.9281L5.75422 9.021C5.82415 8.74128 5.86911 8.58144 5.88909 8.54148C5.74923 8.2218 5.6793 7.88214 5.6793 7.5225C5.6793 7.21281 5.73424 6.92809 5.84413 6.66835C5.95402 6.40861 6.10387 6.20382 6.29368 6.05397C6.4835 5.90412 6.69329 5.82919 6.92306 5.82919C7.19279 5.82919 7.41756 5.93409 7.59738 6.14388C7.6773 6.23379 7.73724 6.34118 7.7772 6.46605C7.81716 6.59093 7.82715 6.7183 7.80717 6.84817C7.80717 7.00801 7.78719 7.17784 7.74723 7.35766C7.70727 7.53748 7.62236 7.85217 7.49249 8.30172L7.37261 8.70632L7.2827 9.08094C7.24274 9.2208 7.23774 9.36066 7.26771 9.50052C7.29768 9.64038 7.35512 9.76526 7.44004 9.87515C7.52495 9.98504 7.63235 10.0675 7.76222 10.1224C7.89209 10.1773 8.02695 10.2048 8.16681 10.2048C8.51646 10.2048 8.83115 10.06 9.11087 9.77025C9.39059 9.48054 9.61287 9.08843 9.7777 8.59393C9.94254 8.09942 10.025 7.55247 10.025 6.95307C10.025 6.24378 9.80517 5.67684 9.36561 5.25227C8.92605 4.82769 8.32665 4.61541 7.56741 4.61541C7.1778 4.59543 6.80318 4.65786 6.44354 4.80272C6.08389 4.94757 5.76671 5.15736 5.49199 5.43209C5.21726 5.70681 5.00497 6.02899 4.85512 6.39862C4.70527 6.76825 4.63534 7.14787 4.64533 7.53748C4.62535 7.97704 4.74523 8.37165 5.00497 8.7213C5.0749 8.77125 5.11986 8.83618 5.13984 8.91611C5.15982 8.99603 5.15982 9.07095 5.13984 9.14088L5.00497 9.6204C5.00497 9.67035 4.98999 9.71281 4.96002 9.74777C4.93005 9.78274 4.89508 9.81271 4.85512 9.83768C4.81516 9.86266 4.77271 9.87515 4.72775 9.87515C4.6828 9.87515 4.64034 9.86516 4.60038 9.84518C4.19079 9.67535 3.8761 9.37315 3.65632 8.93858C3.43654 8.50402 3.32665 7.98703 3.32665 7.38763C3.32665 6.66835 3.51147 6.00402 3.8811 5.39463C4.25073 4.78524 4.76521 4.30572 5.42455 3.95607C6.11386 3.57644 6.88809 3.38663 7.74723 3.38663C8.4765 3.38663 9.14583 3.55647 9.75522 3.89613C10.3346 4.2258 10.7967 4.67035 11.1413 5.22979C11.486 5.78923 11.6583 6.39862 11.6583 7.05796C11.6583 7.89712 11.516 8.64638 11.2312 9.30572C10.9465 9.96506 10.5494 10.482 10.0399 10.8567C9.53045 11.2313 8.95103 11.4186 8.30168 11.4186C8.02196 11.4286 7.75223 11.3736 7.49249 11.2538C7.23275 11.1339 7.01796 10.9641 6.84813 10.7443L6.45852 12.3177C6.38859 12.5675 6.29368 12.8172 6.1738 13.067C6.8831 13.2368 7.59988 13.2668 8.32415 13.1569C9.04843 13.047 9.72525 12.8097 10.3546 12.4451C10.984 12.0804 11.526 11.6109 11.9805 11.0365C12.435 10.4621 12.7672 9.8252 12.977 9.1259C13.1868 8.42659 13.2592 7.71481 13.1943 6.99053C13.1293 6.26626 12.9295 5.57694 12.5949 4.9226C12.2602 4.26825 11.8207 3.69882 11.2762 3.21431C10.7317 2.72979 10.1149 2.36516 9.42555 2.1204C8.73624 1.87565 8.02695 1.76576 7.29768 1.79073C6.56841 1.81571 5.86911 1.97555 5.19978 2.27025C4.53045 2.56496 3.93854 2.97205 3.42405 3.49153C2.90957 4.01101 2.51247 4.60791 2.23275 5.28224C1.95303 5.95656 1.80567 6.65836 1.79069 7.38763C1.7757 8.1169 1.89558 8.8237 2.15033 9.50801C2.40507 10.1923 2.7772 10.8042 3.26671 11.3437C3.75622 11.8831 4.33065 12.3127 4.98999 12.6324ZM7.49249 14.6404C6.20377 14.6404 5.00497 14.3157 3.89608 13.6664C2.81716 13.037 1.96302 12.1828 1.33365 11.1039C0.684294 9.99503 0.359619 8.79373 0.359619 7.50002C0.359619 6.20632 0.684294 5.00502 1.33365 3.89613C1.96302 2.8172 2.81716 1.96306 3.89608 1.33369C5.00497 0.684338 6.20627 0.359662 7.49998 0.359662C8.79368 0.359662 9.99498 0.684338 11.1039 1.33369C12.1828 1.96306 13.0369 2.8172 13.6663 3.89613C14.3157 5.00502 14.6403 6.20632 14.6403 7.50002C14.6403 8.79373 14.3157 9.99503 13.6663 11.1039C13.0369 12.1828 12.1828 13.037 11.1039 13.6664C9.99498 14.3157 8.79119 14.6404 7.49249 14.6404Z" fill="#666666"/>
</svg>
