<svg width="10" height="25" viewBox="0 0 10 25" fill="none" xmlns="http://www.w3.org/2000/svg">
<g clip-path="url(#clip0_2578_1291)">
<path d="M0.696397 12.0946L7.57752 5.16548C7.6894 5.05359 7.82527 4.99765 7.98511 4.99765C8.14495 4.99765 8.27282 5.05359 8.36872 5.16548L9.30379 6.07657C9.41568 6.18846 9.47162 6.32432 9.47162 6.48416C9.47162 6.644 9.41568 6.77188 9.30379 6.86778L3.74135 12.4782L9.30379 18.1125C9.41568 18.2084 9.47162 18.3363 9.47162 18.4962C9.47162 18.656 9.41568 18.7919 9.30379 18.9037L8.36872 19.8148C8.27282 19.9267 8.14495 19.9827 7.98511 19.9827C7.82527 19.9827 7.6894 19.9267 7.57752 19.8148L0.696397 12.8858C0.584509 12.7739 0.528564 12.642 0.528564 12.4902C0.528564 12.3383 0.584509 12.2064 0.696397 12.0946Z" fill="#222222"/>
</g>
<defs>
<clipPath id="clip0_2578_1291">
<rect width="9" height="24" fill="white" transform="matrix(1 0 0 -1 0.5 24.4902)"/>
</clipPath>
</defs>
</svg>
