<svg width="32" height="31" viewBox="0 0 32 31" fill="none" xmlns="http://www.w3.org/2000/svg">
<path d="M1.43478 15.5002C1.43478 17.0096 1.69304 18.4587 2.16939 19.8045M2.16939 19.8045H14.3478M2.16939 19.8045C3.05973 22.3228 4.70907 24.503 6.89017 26.0448C9.07128 27.5865 11.6768 28.414 14.3478 28.4132C12.1325 28.4132 10.3075 23.3915 10.0693 16.935M17.2375 11.1958H29.4159M29.4159 11.1958C28.5256 8.67757 26.8762 6.49737 24.6951 4.95559C22.514 3.41381 19.9085 2.58632 17.2375 2.58713C19.5331 2.58713 21.4113 7.98478 21.5347 14.7828M29.4159 11.1958C29.8148 12.3279 30.0616 13.5316 30.1304 14.7828M1.43478 5.88282C1.43478 4.30887 1.43478 3.51974 1.70309 2.90852C1.99004 2.26 2.48074 1.73917 3.09196 1.43787C3.66874 1.15234 4.41196 1.15234 5.89696 1.15234H7.17391C9.87991 1.15234 11.2315 1.15234 12.0723 2.04191C12.913 2.93578 12.913 4.36626 12.913 7.23582V10.477C12.913 11.7267 12.913 12.3523 12.5343 12.5675C12.1555 12.7827 11.6648 12.4355 10.6834 11.741L10.5327 11.6363C9.81535 11.1284 9.45665 10.8759 9.04918 10.7453C8.64313 10.6147 8.21126 10.6147 7.34896 10.6147H5.89983C4.41196 10.6147 3.66874 10.6147 3.09196 10.3292C2.47044 10.0176 1.97866 9.49687 1.70309 8.85856C1.43478 8.24734 1.43478 7.45965 1.43478 5.88282ZM30.1304 23.1002C30.1304 21.5248 30.1304 20.7371 29.8621 20.1259C29.5866 19.4876 29.0948 18.9669 28.4733 18.6553C27.8965 18.3697 27.1533 18.3697 25.6683 18.3697H24.3913C21.6853 18.3697 20.3337 18.3697 19.493 19.2593C18.6522 20.1532 18.6522 21.5836 18.6522 24.4532V27.6944C18.6522 28.9441 18.6522 29.5696 19.031 29.7849C19.4097 30.0001 19.9004 29.6529 20.8818 28.9584L21.0325 28.8537C21.7499 28.3458 22.1086 28.0933 22.516 27.9627C22.9221 27.8321 23.354 27.8321 24.2163 27.8321H25.6654C27.1533 27.8321 27.8965 27.8321 28.4733 27.5466C29.0845 27.2453 29.5766 26.7245 29.8621 26.076C30.1304 25.4647 30.1304 24.677 30.1304 23.1002Z" stroke="black" stroke-width="2.15217" stroke-linecap="round" stroke-linejoin="round"/>
</svg>
