<svg width="25" height="33" viewBox="0 0 25 33" fill="none" xmlns="http://www.w3.org/2000/svg">
<path d="M12.3735 9.27881C13.0575 9.27881 13.7135 9.00708 14.1972 8.52341C14.6808 8.03974 14.9526 7.38374 14.9526 6.69972C14.9526 6.0157 14.6808 5.3597 14.1972 4.87602C13.7135 4.39235 13.0575 4.12063 12.3735 4.12063C11.6894 4.12063 11.0334 4.39235 10.5498 4.87602C10.0661 5.3597 9.79437 6.0157 9.79437 6.69972C9.79437 7.38374 10.0661 8.03974 10.5498 8.52341C11.0334 9.00708 11.6894 9.27881 12.3735 9.27881Z" fill="black"/>
<path d="M12.3735 9.27881C13.6052 9.27881 14.705 10.067 15.097 11.2369L15.2765 11.7733C15.2999 11.8419 15.3065 11.9152 15.2958 11.9869C15.2851 12.0586 15.2574 12.1267 15.2149 12.1854C15.1725 12.2442 15.1166 12.292 15.052 12.3248C14.9873 12.3575 14.9157 12.3743 14.8432 12.3737H9.91198C9.8398 12.3734 9.76871 12.356 9.70452 12.323C9.64034 12.29 9.58486 12.2423 9.54262 12.1837C9.50038 12.1252 9.47257 12.0575 9.46146 11.9862C9.45035 11.9149 9.45625 11.8419 9.47869 11.7733L9.6582 11.2369C9.8492 10.6659 10.215 10.1696 10.7038 9.81815C11.1927 9.46672 11.7797 9.27803 12.3817 9.27881L12.3735 9.27881ZM6.18364 17.5319C6.18364 17.2583 6.29233 16.9959 6.4858 16.8024C6.67927 16.609 6.94167 16.5003 7.21528 16.5003H17.5316C17.8053 16.5003 18.0677 16.609 18.2611 16.8024C18.4546 16.9959 18.5633 17.2583 18.5633 17.5319C18.5633 17.8055 18.4546 18.0679 18.2611 18.2614C18.0677 18.4549 17.8053 18.5635 17.5316 18.5635H7.21528C6.94167 18.5635 6.67927 18.4549 6.4858 18.2614C6.29233 18.0679 6.18364 17.8055 6.18364 17.5319ZM6.18364 21.6585C6.18364 21.3848 6.29233 21.1224 6.4858 20.929C6.67927 20.7355 6.94167 20.6268 7.21528 20.6268H17.5316C17.8053 20.6268 18.0677 20.7355 18.2611 20.929C18.4546 21.1224 18.5633 21.3848 18.5633 21.6585C18.5633 21.9321 18.4546 22.1945 18.2611 22.3879C18.0677 22.5814 17.8053 22.6901 17.5316 22.6901H7.21528C6.94167 22.6901 6.67927 22.5814 6.4858 22.3879C6.29233 22.1945 6.18364 21.9321 6.18364 21.6585ZM7.21528 24.7534C6.94167 24.7534 6.67927 24.8621 6.4858 25.0555C6.29233 25.249 6.18364 25.5114 6.18364 25.785C6.18364 26.0586 6.29233 26.321 6.4858 26.5145C6.67927 26.7079 6.94167 26.8166 7.21528 26.8166H11.3418C11.6154 26.8166 11.8778 26.7079 12.0713 26.5145C12.2648 26.321 12.3735 26.0586 12.3735 25.785C12.3735 25.5114 12.2648 25.249 12.0713 25.0555C11.8778 24.8621 11.6154 24.7534 11.3418 24.7534H7.21528Z" fill="black"/>
<path fill-rule="evenodd" clip-rule="evenodd" d="M0.67469 3.37758C-1.77004e-07 4.7022 0 6.43123 0 9.89753V23.1025C0 26.5688 -1.77004e-07 28.3019 0.67469 29.6224C1.27023 30.7843 2.21569 31.7298 3.37758 32.3253C4.7022 33 6.43122 33 9.89752 33H14.8494C18.3157 33 20.0488 33 21.3693 32.3253C22.5329 31.7321 23.479 30.786 24.0722 29.6224C24.7469 28.2978 24.7469 26.5688 24.7469 23.1025V9.89753C24.7469 6.43123 24.7469 4.69807 24.0722 3.37758C23.479 2.21402 22.5329 1.26793 21.3693 0.674691C20.0447 5.90012e-08 18.3157 0 14.8494 0H9.89752C6.43122 0 4.69807 5.90012e-08 3.37758 0.674691C2.21569 1.27023 1.27023 2.21569 0.67469 3.37758ZM14.8494 2.06121H9.89752C8.1293 2.06121 6.92641 2.06121 5.99794 2.13961C5.09422 2.21183 4.62999 2.34594 4.30812 2.511C3.53169 2.90662 2.90043 3.53788 2.50481 4.31431C2.33975 4.63618 2.20564 5.09835 2.13342 6.00413C2.05708 6.9326 2.05502 8.1293 2.05502 9.90371V23.1087C2.05502 24.8769 2.05708 26.0798 2.13342 27.0083C2.2077 27.912 2.34182 28.3762 2.50481 28.6981C2.90096 29.4739 3.53233 30.1052 4.30812 30.5014C4.62999 30.6664 5.09422 30.8006 5.99794 30.8728C6.92641 30.947 8.12311 30.9491 9.89752 30.9491H14.8494C16.6176 30.9491 17.8205 30.9491 18.749 30.8728C19.6527 30.7985 20.1169 30.6644 20.4388 30.5014C21.2146 30.1052 21.8459 29.4739 22.2421 28.6981C22.4072 28.3762 22.5413 27.912 22.6135 27.0062C22.6898 26.0777 22.6919 24.881 22.6919 23.1066V9.90165C22.6919 8.13549 22.6898 6.93054 22.6135 6.00206C22.5392 5.10041 22.4051 4.63618 22.2421 4.31431C21.8465 3.53788 21.2152 2.90662 20.4388 2.511C20.1169 2.34594 19.6527 2.21183 18.749 2.13961C17.8205 2.06327 16.6238 2.06121 14.8494 2.06121Z" fill="black"/>
</svg>
