<svg width="14" height="15" viewBox="0 0 14 15" fill="none" xmlns="http://www.w3.org/2000/svg">
<path d="M0.623938 7.67235L1.20835 8.25677C1.27828 8.3267 1.3607 8.36166 1.45561 8.36166C1.55051 8.36166 1.63293 8.3267 1.70286 8.25677L6.24332 3.70132V13.7113C6.24332 13.8112 6.27828 13.8936 6.34821 13.9586C6.41814 14.0235 6.50306 14.056 6.60296 14.056H7.41215C7.51205 14.056 7.59697 14.0235 7.6669 13.9586C7.73683 13.8936 7.77179 13.8112 7.77179 13.7113V3.70132L12.3123 8.25677C12.3822 8.3267 12.4646 8.36166 12.5595 8.36166C12.6544 8.36166 12.7368 8.3267 12.8068 8.25677L13.3912 7.67235C13.4611 7.60242 13.4961 7.52001 13.4961 7.4251C13.4961 7.33019 13.4611 7.24778 13.3912 7.17785L7.2623 1.03399C7.19237 0.974051 7.10745 0.944081 7.00755 0.944081C6.90765 0.944081 6.82274 0.974051 6.75281 1.03399L0.623938 7.17785C0.554008 7.24778 0.519043 7.33019 0.519043 7.4251C0.519043 7.52001 0.554008 7.60242 0.623938 7.67235Z" fill="#222222"/>
</svg>
