<svg width="18" height="19" viewBox="0 0 18 19" fill="none" xmlns="http://www.w3.org/2000/svg">
<path d="M0.921875 17.4996C0.921875 17.9138 1.25766 18.2496 1.67188 18.2496C2.08609 18.2496 2.42188 17.9138 2.42188 17.4996H0.921875ZM3.91662 12.372L3.40118 11.8272L3.40113 11.8273L3.91662 12.372ZM6.40302 10.8001L6.67667 11.4984L6.67668 11.4984L6.40302 10.8001ZM12.2688 10.8001L12.5425 10.1018L12.5425 10.1018L12.2688 10.8001ZM14.7552 12.372L15.2707 11.8272L15.2706 11.8272L14.7552 12.372ZM16.4165 14.7246L15.7295 15.0254L15.7295 15.0254L16.4165 14.7246ZM16.2499 17.4996C16.2499 17.9138 16.5857 18.2496 16.9999 18.2496C17.4141 18.2496 17.7499 17.9138 17.7499 17.4996H16.2499ZM12.9597 5.87431C12.9597 7.87569 11.3373 9.49813 9.3359 9.49813V10.9981C12.1657 10.9981 14.4597 8.70412 14.4597 5.87431H12.9597ZM9.3359 9.49813C7.33452 9.49813 5.71208 7.87569 5.71208 5.87431H4.21208C4.21208 8.70412 6.50609 10.9981 9.3359 10.9981V9.49813ZM5.71208 5.87431C5.71208 3.87293 7.33452 2.25049 9.3359 2.25049V0.750488C6.50609 0.750488 4.21208 3.0445 4.21208 5.87431H5.71208ZM9.3359 2.25049C11.3373 2.25049 12.9597 3.87293 12.9597 5.87431H14.4597C14.4597 3.0445 12.1657 0.750488 9.3359 0.750488V2.25049ZM2.42188 17.4996C2.42188 16.6518 2.59831 15.8112 2.94232 15.0254L1.56822 14.4239C1.14192 15.3977 0.921875 16.4429 0.921875 17.4996H2.42188ZM2.94232 15.0254C3.28636 14.2395 3.79186 13.5226 4.4321 12.9168L3.40113 11.8273C2.61803 12.5682 1.99447 13.4502 1.56822 14.4239L2.94232 15.0254ZM4.43205 12.9168C5.07239 12.311 5.83479 11.8283 6.67667 11.4984L6.12936 10.1018C5.11154 10.5007 4.18418 11.0864 3.40118 11.8272L4.43205 12.9168ZM6.67668 11.4984C7.51861 11.1685 8.42232 10.9981 9.3359 10.9981V9.49813C8.23647 9.49813 7.14702 9.703 6.12935 10.1018L6.67668 11.4984ZM9.3359 10.9981C10.2494 10.9981 11.1531 11.1685 11.9952 11.4984L12.5425 10.1018C11.5247 9.703 10.4352 9.49813 9.3359 9.49813V10.9981ZM11.9951 11.4984C12.837 11.8283 13.5994 12.311 14.2398 12.9169L15.2706 11.8272C14.4876 11.0864 13.5602 10.5007 12.5425 10.1018L11.9951 11.4984ZM14.2397 12.9168C14.88 13.5226 15.3855 14.2395 15.7295 15.0254L17.1036 14.4239C16.6774 13.4502 16.0538 12.5682 15.2707 11.8272L14.2397 12.9168ZM15.7295 15.0254C16.0735 15.8112 16.2499 16.6518 16.2499 17.4996H17.7499C17.7499 16.4429 17.5299 15.3977 17.1036 14.4238L15.7295 15.0254Z" fill="black"/>
</svg>
