<svg width="19" height="15" viewBox="0 0 19 15" fill="none" xmlns="http://www.w3.org/2000/svg">
<path d="M15.8461 3.56641C15.8161 3.43654 15.7587 3.32665 15.6738 3.23674C15.5889 3.14683 15.4965 3.08689 15.3966 3.05692C15.1268 2.977 14.5674 2.90707 13.7182 2.84713C12.5594 2.75722 11.1558 2.71227 9.50745 2.71227C7.8591 2.71227 6.4555 2.75722 5.29666 2.84713C4.43752 2.90707 3.87808 2.977 3.61834 3.05692C3.50845 3.08689 3.41354 3.14683 3.33362 3.23674C3.2537 3.32665 3.19876 3.43654 3.16879 3.56641C3.09886 3.85612 3.03392 4.32565 2.97398 4.975C2.88407 5.8741 2.83912 6.85562 2.83912 7.91956C2.83912 8.98349 2.88407 9.96501 2.97398 10.8641C3.03392 11.5135 3.09886 11.978 3.16879 12.2577C3.19876 12.3876 3.2537 12.4975 3.33362 12.5874C3.41354 12.6773 3.50845 12.7372 3.61834 12.7672C3.87808 12.8471 4.43752 12.9221 5.29666 12.992C6.4555 13.0819 7.8591 13.1269 9.50745 13.1269C11.1558 13.1269 12.5594 13.0819 13.7182 12.992C14.5674 12.9221 15.1268 12.8471 15.3966 12.7672C15.4965 12.7372 15.5889 12.6773 15.6738 12.5874C15.7587 12.4975 15.8161 12.3876 15.8461 12.2577C15.916 11.978 15.981 11.5135 16.0409 10.8641C16.1308 9.95502 16.1758 8.97101 16.1758 7.91207C16.1758 6.85312 16.1308 5.8741 16.0409 4.975C15.981 4.32565 15.916 3.85612 15.8461 3.56641ZM17.4645 3.13185C17.5744 3.59139 17.6593 4.23574 17.7192 5.06491C17.7692 5.65432 17.8042 6.30367 17.8241 7.01296L17.8391 7.91207L17.8241 8.81117C17.8042 9.52046 17.7692 10.1698 17.7192 10.7592C17.6593 11.5884 17.5744 12.2327 17.4645 12.6923C17.3546 13.1219 17.1548 13.494 16.8651 13.8087C16.5754 14.1234 16.2357 14.3356 15.8461 14.4455C15.4165 14.5654 14.6573 14.6603 13.5684 14.7302C12.7892 14.7902 11.8751 14.8301 10.8261 14.8501L9.50745 14.8651L8.17378 14.8501C7.13482 14.8301 6.22573 14.7902 5.44651 14.7302C4.34761 14.6603 3.58837 14.5654 3.16879 14.4455C2.76919 14.3257 2.42703 14.1109 2.14231 13.8012C1.8576 13.4915 1.6603 13.1219 1.55041 12.6923C1.44052 12.2327 1.35061 11.5884 1.28068 10.7592C1.24072 10.1698 1.21075 9.52046 1.19077 8.81117L1.17578 7.91207L1.19077 7.01296C1.21075 6.30367 1.24072 5.65432 1.28068 5.06491C1.35061 4.23574 1.44052 3.59139 1.55041 3.13185C1.6603 2.71227 1.8601 2.34513 2.14981 2.03045C2.43952 1.71576 2.77918 1.49848 3.16879 1.3786C3.7582 1.20877 4.99196 1.08889 6.87009 1.01896C7.80915 0.988989 8.68827 0.974004 9.50745 0.974004L10.8261 0.988989C11.8751 1.00897 12.7892 1.04393 13.5684 1.09388C14.6573 1.16381 15.4165 1.25872 15.8461 1.3786C16.2357 1.49848 16.5754 1.71576 16.8651 2.03045C17.1548 2.34513 17.3546 2.71227 17.4645 3.13185ZM7.84411 10.954V4.87011L12.8341 7.91207L7.84411 10.954Z" fill="#666666"/>
</svg>
